<svg width="51" height="50" viewBox="0 0 51 50" fill="none" xmlns="http://www.w3.org/2000/svg">
<path fill-rule="evenodd" clip-rule="evenodd" d="M8.93576 41.6953C8.52754 43.9001 6.81061 50 9.63106 50C11.6629 50 14.3194 46.4692 16.7224 44.9651C17.5574 45.2921 36.716 48.5059 44.5001 39.4999C52.2841 30.4939 49.6554 14.2564 34.6347 10.2299C20.5696 6.49299 0.706366 9.11876 0.975422 26.9999C1.05892 32.8949 3.4897 38.0051 6.80187 40.5275C7.45446 41.0169 8.17298 41.4101 8.93576 41.6953Z" fill="#CDE1FF"/>
<path d="M34.579 22H14.421C13.6362 22 13 22.436 13 22.9737V25.0263C13 25.564 13.6362 26 14.421 26H34.579C35.3638 26 36 25.564 36 25.0263V22.9737C36 22.436 35.3638 22 34.579 22Z" fill="white"/>
<path d="M35.212 30H13.788C13.3528 30 13 30.436 13 30.9737V33.0263C13 33.564 13.3528 34 13.788 34H35.212C35.6472 34 36 33.564 36 33.0263V30.9737C36 30.436 35.6472 30 35.212 30Z" fill="white"/>
</svg>
